<svg xmlns="http://www.w3.org/2000/svg" xmlns:xlink="http://www.w3.org/1999/xlink" version="1.1" x="0px" y="0px" viewBox="0 0 100 100" enable-background="new 0 0 100 100" xml:space="preserve"><g><path d="M87.601,6.717c0,0-7.708-1.979-10.206,1.16L44.929,48.666c-0.118,0.149-0.196,0.314-0.3,0.468   c-9.211-3.492-19.996-0.849-26.458,7.271c-8.007,10.06-6.343,24.707,3.717,32.714c10.061,8.008,24.708,6.341,32.714-3.717   c6.419-8.065,6.607-19.066,1.258-27.24c0.143-0.152,0.303-0.281,0.436-0.449l15.347-19.281l-0.002,0.003l6.159-2.946l1.184-5.48   l5.012-2.304l1.301-6.268l4.87-2.923C90.165,18.513,90.33,7.786,87.601,6.717z M42.074,75.26c-2.396,3.008-6.777,3.507-9.787,1.111   c-3.009-2.396-3.507-6.776-1.111-9.786c2.395-3.01,6.777-3.507,9.786-1.111C43.971,67.867,44.469,72.25,42.074,75.26z    M51.299,52.593c-0.479,0.602-1.355,0.701-1.957,0.222s-0.702-1.355-0.223-1.957l31.889-40.064   c0.479-0.602,1.354-0.702,1.957-0.222c0.409,0.325,0.564,0.832,0.486,1.313c-0.168,0.308-0.337,0.625-0.51,0.952L51.299,52.593z"></path></g></svg>