<svg xmlns="http://www.w3.org/2000/svg" xmlns:xlink="http://www.w3.org/1999/xlink" version="1.1" x="0px" y="0px" viewBox="0 0 100 100" enable-background="new 0 0 100 100" xml:space="preserve"><g><path fill="#000000" d="M37.517,65.16H11.729c1.604,0,2.904-1.301,2.904-2.904V53.75c0-1.604-1.3-2.904-2.904-2.904H5V65.16v23.342   h14.12c0-6.892,2-9.781,9.198-9.781C39.594,78.721,37.517,65.16,37.517,65.16z M15.747,87.461c-0.222,0-0.403-0.168-0.403-0.373   c0-3.265-1.582-6.022-3.454-6.022c-1.874,0-3.454,2.758-3.454,6.022c0,0.205-0.182,0.373-0.405,0.373   c-0.222,0-0.403-0.168-0.403-0.373c0-3.797,1.873-6.77,4.262-6.77s4.261,2.973,4.261,6.77   C16.151,87.293,15.971,87.461,15.747,87.461z"></path><circle fill="#000000" cx="8.772" cy="49.05" r="1.157"></circle><path fill="#000000" d="M19.021,64.721h17.482c0.666,0,1.207-0.541,1.207-1.206c0-0.666-0.541-1.206-1.207-1.206H19.021   c-0.666,0-1.206,0.54-1.206,1.206C17.815,64.18,18.355,64.721,19.021,64.721z"></path><path fill="#000000" d="M36.503,60.567H19.021c-0.666,0-1.206,0.54-1.206,1.206H37.71C37.71,61.107,37.169,60.567,36.503,60.567z"></path><circle fill="#000000" cx="64.218" cy="15.001" r="6.364"></circle><path fill="#000000" d="M72.518,48.068c0.21-0.771,0.269-1.599,0.139-2.439l-2.617-17.077c-0.04-0.255-0.097-0.505-0.167-0.747   c0.079-0.725-0.111-1.464-0.553-2.065c-0.945-2.004-3.028-3.344-5.378-3.229c-2.149,0.106-3.956,1.401-4.819,3.218   c-0.109,0.148-0.208,0.308-0.291,0.481l-4.471,9.322l2.461-13.37l-1.575-0.29l-3.528,19.169l-1.559,3.25   c-0.511,1.066-0.321,2.284,0.382,3.142L45.89,72.692c-1.743,0.05-3.142,1.476-3.142,3.229c0,0.201,0.021,0.397,0.057,0.589   c-1.51,0.264-3.107,0.945-3.226,2.649c-0.229,3.283,1.883,5.494-0.356,7.023c-2.388,1.633-8.107,2.318-8.107,2.318h16.927   c0,0,4.574-6.059,3.658-8.836c-0.386-1.174-1.548-1.94-2.76-2.436c0.177-0.4,0.278-0.843,0.278-1.309   c0-1.257-0.718-2.343-1.765-2.879l4.539-24.654c0.271,0.079,0.546,0.122,0.818,0.122c0.938,0,1.844-0.451,2.403-1.241   c0.227-0.163,0.436-0.357,0.615-0.588l4.233-5.476l0.951,6.206c0.034,0.225,0.082,0.442,0.14,0.656   c-0.064,0.175-0.116,0.356-0.149,0.545l-6.338,36.878c-0.291,1.694,0.847,3.305,2.54,3.596c0.179,0.03,0.356,0.045,0.531,0.045   c1.487,0,2.804-1.07,3.064-2.586l5.792-33.696l0.995,33.263c0.051,1.686,1.434,3.02,3.109,3.02c0.031,0,0.063-0.001,0.095-0.001   c1.718-0.052,3.07-1.486,3.019-3.205l-1.104-36.878C72.697,48.704,72.63,48.375,72.518,48.068z"></path><polygon fill="#000000" points="94.702,22.712 93.103,22.63 90.751,68.832 77.517,68.832 78.825,88.502 92.904,88.502    94.213,68.832 92.354,68.832  "></polygon></g></svg>